{"title":"Once Upon Ay Time In Mumbai Dobaara -Hindi-DVDScr - XviD - 5.1 S","uid":8815623,"size":786717150,"categoryP":"video","categoryS":"movies","magnet":"?xt=urn:btih:398741f653670eb85b7a17e16705320050b564e1&amp;dn=Once+Upon+Ay+Time+In+Mumbai+Dobaara+-Hindi-DVDScr+-+XviD+-+5.1+S&amp;tr=udp%3A%2F%2Ftracker.openbittorrent.com%3A80&amp;tr=udp%3A%2F%2Fopen.demonii.com%3A1337&amp;tr=udp%3A%2F%2Ftracker.coppersurfer.tk%3A6969&amp;tr=udp%3A%2F%2Fexodus.desync.com%3A6969","seeders":1,"leechers":0,"uploader":"SaM--DDR","files":5,"time":1376573612,"description":"[Code]\nGeneral\nComplete name : Once Upon Ay Time In Mumbai Dobaara! [2013].mpg\nFormat : MPEG-PS\nFile size : 749 MiB\nDuration : 2h 10mn\nOverall bit rate : 800 Kbps\n\nVideo\nID : 224 (0xE0)\nFormat : MPEG Video\nFormat version : Version 2\nFormat settings, BVOP : Yes\nFormat settings, Matrix : Custom\nFormat settings, GOP : Variable\nDuration : 2h 10mn\nBit rate : 720 Kbps\nMaximum bit rate : 1 150 Kbps\nWidth : 352 pixels\nHeight : 288 pixels\nDisplay aspect ratio : 1.222\nFrame rate : 25.000 fps\nStandard : PAL\nColor space : YUV\nChroma subsampling : 4:2:0\nBit depth : 8 bits\nScan type : Progressive\nCompression mode : Lossy\nBits/(Pixel*Frame) : 0.284\nTime code of first frame : 00:00:00:00\nTime code source : Group of pictures header\nStream size : 674 MiB (90%)\n\nAudio\nID : 192 (0xC0)\nFormat : MPEG Audio\nFormat version : Version 1\nFormat profile : Layer 2\nDuration : 2h 10mn\nBit rate mode : Constant\nBit rate : 64.0 Kbps\nChannel(s) : 2 channels\nSampling rate : 48.0 KHz\nCompression mode : Lossy\nStream size : 59.9 MiB (8%)\n[/CODE]\n","torrent":{"xt":"urn:btih:398741f653670eb85b7a17e16705320050b564e1","amp;dn":"Once+Upon+Ay+Time+In+Mumbai+Dobaara+-Hindi-DVDScr+-+XviD+-+5.1+S","amp;tr":["udp%3A%2F%2Ftracker.openbittorrent.com%3A80","udp%3A%2F%2Fopen.demonii.com%3A1337","udp%3A%2F%2Ftracker.coppersurfer.tk%3A6969","udp%3A%2F%2Fexodus.desync.com%3A6969"],"infoHash":"398741f653670eb85b7a17e16705320050b564e1","infoHashBuffer":{"type":"Buffer","data":[57,135,65,246,83,103,14,184,91,122,23,225,103,5,50,0,80,181,100,225]},"announce":[],"urlList":[]}}